<svg width="79" height="23" viewBox="0 0 79 23" fill="none" xmlns="http://www.w3.org/2000/svg">
<path d="M2.826 8.352L1.8 7.542C2.58 6.378 3.726 5.796 5.238 5.796C6.318 5.796 7.164 6.078 7.776 6.642C8.4 7.206 8.712 7.944 8.712 8.856C8.712 9.444 8.556 9.96 8.244 10.404C7.944 10.836 7.548 11.166 7.056 11.394C7.836 11.574 8.43 11.946 8.838 12.51C9.258 13.074 9.468 13.734 9.468 14.49C9.468 15.738 8.97 16.716 7.974 17.424C7.206 17.952 6.294 18.216 5.238 18.216C4.146 18.216 3.24 17.94 2.52 17.388C1.8 16.836 1.26 16.152 0.9 15.336L2.196 14.76C2.436 15.432 2.832 15.966 3.384 16.362C3.936 16.758 4.572 16.956 5.292 16.956C6.024 16.956 6.636 16.788 7.128 16.452C7.776 15.996 8.1 15.354 8.1 14.526C8.1 12.954 7.032 12.168 4.896 12.168H3.816V10.908H4.896C5.688 10.908 6.294 10.716 6.714 10.332C7.134 9.948 7.344 9.462 7.344 8.874C7.344 8.358 7.182 7.938 6.858 7.614C6.498 7.242 5.958 7.056 5.238 7.056C4.23 7.056 3.426 7.488 2.826 8.352ZM17.3191 11.592V10.53H18.6151V18H17.3191V16.956C16.6711 17.796 15.8191 18.216 14.7631 18.216C13.7551 18.216 12.8971 17.868 12.1891 17.172C11.4811 16.476 11.1271 15.504 11.1271 14.256C11.1271 13.032 11.4751 12.078 12.1711 11.394C12.8791 10.698 13.7431 10.35 14.7631 10.35C15.8431 10.35 16.6951 10.764 17.3191 11.592ZM14.9071 11.502C14.2231 11.502 13.6411 11.748 13.1611 12.24C12.6931 12.72 12.4591 13.392 12.4591 14.256C12.4591 15.084 12.6751 15.762 13.1071 16.29C13.5511 16.806 14.1511 17.064 14.9071 17.064C15.6631 17.064 16.2631 16.794 16.7071 16.254C17.1631 15.714 17.3911 15.054 17.3911 14.274C17.3911 13.386 17.1391 12.702 16.6351 12.222C16.1311 11.742 15.5551 11.502 14.9071 11.502ZM21.0697 10.53H22.3657V13.59L25.3897 10.53H26.9737L23.7337 13.86L27.3697 18H25.6777L22.7617 14.724L22.3657 15.102V18H21.0697V10.53ZM29.9595 16.956V22.14H28.6635V10.53H29.9595V11.574C30.6195 10.758 31.4715 10.35 32.5155 10.35C33.6315 10.35 34.5135 10.746 35.1615 11.538C35.8215 12.318 36.1515 13.242 36.1515 14.31C36.1515 15.39 35.8275 16.314 35.1795 17.082C34.5315 17.838 33.6615 18.216 32.5695 18.216C31.4775 18.216 30.6075 17.796 29.9595 16.956ZM32.3895 17.064C33.1215 17.064 33.7095 16.8 34.1535 16.272C34.5975 15.732 34.8195 15.078 34.8195 14.31C34.8195 13.446 34.5735 12.762 34.0815 12.258C33.5895 11.754 33.0195 11.502 32.3715 11.502C31.7235 11.502 31.1475 11.754 30.6435 12.258C30.1395 12.762 29.8875 13.44 29.8875 14.292C29.8875 15.072 30.1155 15.732 30.5715 16.272C31.0395 16.8 31.6455 17.064 32.3895 17.064ZM38.1381 18V10.53H39.4341V13.392H40.7661C41.7981 13.392 42.5541 13.638 43.0341 14.13C43.4181 14.514 43.6101 15.036 43.6101 15.696C43.6101 16.392 43.3881 16.95 42.9441 17.37C42.5001 17.79 41.7681 18 40.7481 18H38.1381ZM39.4341 16.848H40.6401C41.1801 16.848 41.5641 16.782 41.7921 16.65C42.1161 16.434 42.2781 16.116 42.2781 15.696C42.2781 15.264 42.1221 14.952 41.8101 14.76C41.5941 14.616 41.2101 14.544 40.6581 14.544H39.4341V16.848ZM44.5101 18V10.53H45.8061V18H44.5101ZM53.1415 11.718H50.8015V18H49.5055V11.718H47.1655V10.53H53.1415V11.718ZM54.5033 18V10.53H55.7993V13.392H57.1313C58.1633 13.392 58.9193 13.638 59.3993 14.13C59.7833 14.514 59.9753 15.036 59.9753 15.696C59.9753 16.392 59.7533 16.95 59.3093 17.37C58.8653 17.79 58.1333 18 57.1133 18H54.5033ZM55.7993 16.848H57.0053C57.5453 16.848 57.9293 16.782 58.1573 16.65C58.4813 16.434 58.6433 16.116 58.6433 15.696C58.6433 15.264 58.4873 14.952 58.1753 14.76C57.9593 14.616 57.5753 14.544 57.0233 14.544H55.7993V16.848Z" fill="#2F2222"/>
<g clip-path="url(#clip0_2_454)">
<path d="M69.1416 8.83449C68.9541 8.64699 68.9541 8.33493 69.1416 8.14087C69.3357 7.95337 69.6412 7.95337 69.8352 8.14087L73.9974 12.31L78.1665 8.14087C78.354 7.95337 78.6661 7.95337 78.8531 8.14087C79.0472 8.33493 79.0472 8.64743 78.8531 8.83449L74.691 12.9971L78.8531 17.1662C79.0472 17.3537 79.0472 17.6658 78.8531 17.8598C78.6656 18.0473 78.3536 18.0473 78.1665 17.8598L73.9974 13.6907L69.8352 17.8598C69.6412 18.0473 69.3357 18.0473 69.1416 17.8598C68.9541 17.6658 68.9541 17.3533 69.1416 17.1662L73.3038 12.9971L69.1416 8.83449Z" fill="#2F2222"/>
</g>
<defs>
<clipPath id="clip0_2_454">
<rect width="10" height="10" fill="white" transform="translate(69 8)"/>
</clipPath>
</defs>
</svg>
