<svg width="40" height="40" viewBox="0 0 40 40" fill="none" xmlns="http://www.w3.org/2000/svg">
<path fill-rule="evenodd" clip-rule="evenodd" d="M20 0C8.95431 0 0 8.95431 0 20C0 31.0457 8.95431 40 20 40C31.0457 40 40 31.0457 40 20C40 8.95431 31.0457 0 20 0ZM15.6027 9.39778C16.7405 9.346 17.1041 9.33333 20.001 9.33333H19.9977C22.8955 9.33333 23.2577 9.346 24.3955 9.39778C25.5311 9.44978 26.3066 9.62956 26.9866 9.89334C27.6889 10.1656 28.2822 10.53 28.8755 11.1234C29.4689 11.7162 29.8333 12.3114 30.1067 13.0129C30.3689 13.6912 30.5489 14.4663 30.6022 15.6018C30.6533 16.7396 30.6667 17.1032 30.6667 20.0001C30.6667 22.897 30.6533 23.2597 30.6022 24.3975C30.5489 25.5326 30.3689 26.308 30.1067 26.9864C29.8333 27.6877 29.4689 28.2829 28.8755 28.8758C28.2829 29.4691 27.6886 29.8344 26.9873 30.1069C26.3086 30.3707 25.5326 30.5504 24.397 30.6024C23.2593 30.6542 22.8968 30.6669 19.9997 30.6669C17.103 30.6669 16.7396 30.6542 15.6018 30.6024C14.4665 30.5504 13.6912 30.3707 13.0125 30.1069C12.3114 29.8344 11.7162 29.4691 11.1236 28.8758C10.5305 28.2829 10.166 27.6877 9.89334 26.9862C9.62978 26.308 9.45 25.5328 9.39778 24.3973C9.34622 23.2595 9.33333 22.897 9.33333 20.0001C9.33333 17.1032 9.34667 16.7394 9.39756 15.6016C9.44867 14.4665 9.62867 13.6912 9.89312 13.0127C10.1665 12.3114 10.5309 11.7162 11.1242 11.1234C11.7171 10.5302 12.3123 10.1658 13.0138 9.89334C13.692 9.62956 14.4672 9.44978 15.6027 9.39778Z" fill="#5D71DD"/>
<path fill-rule="evenodd" clip-rule="evenodd" d="M19.044 11.2546C19.2298 11.2543 19.4297 11.2544 19.6454 11.2545L20.0009 11.2546C22.8489 11.2546 23.1865 11.2648 24.3112 11.316C25.3512 11.3635 25.9156 11.5373 26.2916 11.6833C26.7894 11.8766 27.1443 12.1077 27.5174 12.4811C27.8907 12.8544 28.1219 13.21 28.3156 13.7078C28.4616 14.0833 28.6356 14.6478 28.683 15.6878C28.7341 16.8122 28.7452 17.15 28.7452 19.9967C28.7452 22.8434 28.7341 23.1812 28.683 24.3056C28.6354 25.3457 28.4616 25.9101 28.3156 26.2857C28.1223 26.7834 27.8907 27.1379 27.5174 27.511C27.1441 27.8843 26.7896 28.1155 26.2916 28.3088C25.9161 28.4555 25.3512 28.6288 24.3112 28.6764C23.1867 28.7275 22.8489 28.7386 20.0009 28.7386C17.1526 28.7386 16.8151 28.7275 15.6906 28.6764C14.6506 28.6284 14.0862 28.4546 13.7099 28.3086C13.2121 28.1152 12.8566 27.8841 12.4832 27.5108C12.1099 27.1375 11.8788 26.7828 11.685 26.2848C11.539 25.9092 11.365 25.3448 11.3177 24.3048C11.2666 23.1803 11.2563 22.8425 11.2563 19.994C11.2563 17.1456 11.2666 16.8096 11.3177 15.6851C11.3652 14.6451 11.539 14.0806 11.685 13.7046C11.8784 13.2069 12.1099 12.8513 12.4832 12.478C12.8566 12.1046 13.2121 11.8735 13.7099 11.6797C14.0859 11.5331 14.6506 11.3597 15.6906 11.312C16.6746 11.2675 17.056 11.2542 19.044 11.252V11.2546ZM25.6947 13.0265C24.9881 13.0265 24.4147 13.5992 24.4147 14.3061C24.4147 15.0127 24.9881 15.5861 25.6947 15.5861C26.4014 15.5861 26.9747 15.0127 26.9747 14.3061C26.9747 13.5994 26.4014 13.026 25.6947 13.026V13.0265ZM14.5231 20C14.5231 16.9749 16.9756 14.5223 20.0007 14.5221C23.0258 14.5221 25.4778 16.9748 25.4778 20C25.4778 23.0251 23.026 25.4767 20.0009 25.4767C16.9757 25.4767 14.5231 23.0251 14.5231 20Z" fill="#5D71DD"/>
<path fill-rule="evenodd" clip-rule="evenodd" d="M20.0009 16.4434C21.9645 16.4434 23.5565 18.0352 23.5565 19.999C23.5565 21.9625 21.9645 23.5545 20.0009 23.5545C18.0371 23.5545 16.4453 21.9625 16.4453 19.999C16.4453 18.0352 18.0371 16.4434 20.0009 16.4434V16.4434Z" fill="#5D71DD"/>
</svg>
