<svg width="16" height="17" viewBox="0 0 16 17" fill="none" xmlns="http://www.w3.org/2000/svg">
<g clip-path="url(#clip0_2_979)">
<path d="M8.00018 0.5C4.71022 0.5 2.03369 3.17761 2.03369 6.46887C2.03369 11.3726 7.4063 16.1607 7.63509 16.3622C7.73939 16.4541 7.86976 16.5001 8.00018 16.5001C8.13061 16.5001 8.26098 16.4541 8.36533 16.3622C8.59401 16.1608 13.9667 11.3727 13.9667 6.46887C13.9667 3.17761 11.2901 0.5 8.00018 0.5ZM8.00018 4.79323C8.91407 4.79323 9.65756 5.54491 9.65756 6.46887C9.65756 7.39284 8.91407 8.14451 8.00018 8.14451C7.0863 8.14451 6.34281 7.39284 6.34281 6.46887C6.34281 5.54491 7.0863 4.79323 8.00018 4.79323Z" fill="#5D71DD"/>
</g>
<defs>
<clipPath id="clip0_2_979">
<rect width="16" height="16" fill="white" transform="translate(0 0.5)"/>
</clipPath>
</defs>
</svg>
